<svg xmlns="http://www.w3.org/2000/svg" viewBox="0 0 400 400" width="32" height="32">
  <defs>
    <linearGradient id="fg1" x1="0%" y1="0%" x2="100%" y2="100%">
      <stop offset="0%" stop-color="#6A9B6A"/>
      <stop offset="100%" stop-color="#4A7A4A"/>
    </linearGradient>
    <linearGradient id="fg2" x1="100%" y1="0%" x2="0%" y2="100%">
      <stop offset="0%" stop-color="#8FB88F"/>
      <stop offset="100%" stop-color="#6A9B6A"/>
    </linearGradient>
  </defs>
  <path d="M200 50 C215 50 230 65 230 90 C230 115 215 135 200 140 C185 135 170 115 170 90 C170 65 185 50 200 50Z" fill="#B7CFB7" opacity="0.4"/>
  <path d="M260 80 C272 88 280 105 275 128 C270 150 255 165 240 165 C230 155 225 135 232 115 C238 95 250 82 260 80Z" fill="#8FB88F" opacity="0.5"/>
  <path d="M300 150 C308 165 305 185 292 202 C280 218 260 225 248 220 C242 207 248 188 260 175 C272 162 290 155 300 150Z" fill="url(#fg2)" opacity="0.55"/>
  <path d="M290 240 C290 258 278 275 260 282 C242 290 222 285 215 275 C215 260 225 245 240 238 C255 232 275 233 290 240Z" fill="url(#fg1)" opacity="0.6"/>
  <path d="M240 310 C228 318 210 318 195 310 C180 302 172 285 175 272 C185 268 200 272 212 282 C222 290 232 302 240 310Z" fill="url(#fg1)" opacity="0.65"/>
  <path d="M150 290 C138 282 130 265 135 248 C140 230 155 218 168 218 C175 228 172 248 162 262 C152 276 142 285 150 290Z" fill="url(#fg2)" opacity="0.6"/>
  <path d="M108 220 C100 205 102 185 115 170 C128 155 148 148 158 155 C162 168 152 188 140 200 C128 212 112 218 108 220Z" fill="#8FB88F" opacity="0.55"/>
  <path d="M120 145 C118 128 128 110 145 100 C162 90 180 92 185 102 C182 115 168 128 152 135 C138 140 124 142 120 145Z" fill="#B7CFB7" opacity="0.5"/>
  <circle cx="200" cy="192" r="24" fill="url(#fg1)"/>
  <circle cx="200" cy="192" r="14" fill="#FFF8F0"/>
</svg>
